<?xml version="1.0" standalone="no"?>
<!DOCTYPE svg PUBLIC "-//W3C//DTD SVG 20010904//EN"
 "http://www.w3.org/TR/2001/REC-SVG-20010904/DTD/svg10.dtd">
<svg version="1.0" xmlns="http://www.w3.org/2000/svg"
 width="16.000000pt" height="16.000000pt" viewBox="0 0 16.000000 16.000000"
 preserveAspectRatio="xMidYMid meet">

<g transform="translate(0.000000,16.000000) scale(0.100000,-0.100000)"
fill="#000000" stroke="none">
<path d="M92 130 c-7 -11 -8 -20 -3 -20 5 0 12 -15 15 -33 3 -19 17 -44 31
-57 29 -27 32 -20 9 15 -9 13 -21 45 -28 70 -10 42 -12 44 -24 25z"/>
<path d="M50 84 c-15 -8 -19 -14 -10 -14 11 -1 9 -6 -7 -19 -13 -11 -23 -23
-23 -27 0 -10 50 37 61 59 5 9 8 17 7 16 -2 -1 -14 -7 -28 -15z"/>
</g>
</svg>
